<svg xmlns="http://www.w3.org/2000/svg" width="24" height="24" viewBox="0 0 24 24" fill="none">
<path d="M22.7213 21H1.27865C0.574602 21 0 20.3663 0 19.5938V4.40625C0 3.63194 0.57618 3 1.27865 3H22.7213C23.4254 3 24 3.63368 24 4.40625V19.5938C24 20.3681 23.4238 21 22.7213 21Z" fill="#0070D0"/>
<path fill-rule="evenodd" clip-rule="evenodd" d="M13.1758 17.984V11.6348L24.0003 11.6446V13.3988L22.7489 14.7946L24.0003 16.2033V17.9939H22.003L20.9412 16.7713L19.887 17.9988L13.1758 17.984Z" fill="white"/>
<path fill-rule="evenodd" clip-rule="evenodd" d="M13.8979 17.2884V12.334H17.9226V13.4749H15.2011V14.2496H17.8575V15.3718H15.2011V16.1327H17.9226V17.2884H13.8979Z" fill="#016FD0"/>
<path fill-rule="evenodd" clip-rule="evenodd" d="M17.9014 17.2884L20.1287 14.8077L17.9014 12.334H19.6251L20.9859 13.9041L22.3503 12.334H23.9996V12.3734L21.8204 14.8077L23.9996 17.2175V17.2884H22.3334L20.9491 15.7025L19.578 17.2884H17.9014Z" fill="#016FD0"/>
<path fill-rule="evenodd" clip-rule="evenodd" d="M13.6799 6H16.2892L17.2058 8.17253V6H20.427L20.9824 7.62817L21.5397 6H23.9999V12.3493H11L13.6799 6Z" fill="white"/>
<path fill-rule="evenodd" clip-rule="evenodd" d="M14.174 6.68945L12.0684 11.6399H13.513L13.91 10.6486H16.0628L16.4598 11.6399H17.9403L15.8422 6.68945H14.174ZM14.3551 9.53727L14.9869 7.96127L15.6177 9.53727H14.3551Z" fill="#016FD0"/>
<path fill-rule="evenodd" clip-rule="evenodd" d="M17.9194 11.638V6.6875L19.9497 6.69537L20.9945 9.7381L22.0459 6.6875H23.9998V11.638L22.7428 11.6498V8.24873L21.5556 11.638H20.408L19.1962 8.2379V11.638H17.9194Z" fill="#016FD0"/>
</svg>