<svg xmlns="http://www.w3.org/2000/svg" width="28" height="28" viewBox="0 0 28 28" fill="none">
<path d="M0.5 7C0.5 6.17157 1.17157 5.5 2 5.5H24C24.8284 5.5 25.5 6.17157 25.5 7V21C25.5 21.8284 24.8284 22.5 24 22.5H2C1.17157 22.5 0.5 21.8284 0.5 21V7Z" fill="#E9E9E9" stroke="#7B7B7B"/>
<rect y="8" width="26" height="4" fill="#7B7B7B"/>
<rect x="3" y="14" width="21" height="2" fill="#C4C4C4"/>
<circle cx="19.5" cy="11.5" r="8" fill="white" stroke="#7B7B7B"/>
<path fill-rule="evenodd" clip-rule="evenodd" d="M25.5005 16C26.4421 14.7465 27 13.1884 27 11.5C27 9.81159 26.4421 8.25349 25.5005 7H13.4995C12.5579 8.25349 12 9.81159 12 11.5C12 13.1884 12.5579 14.7465 13.4995 16H25.5005Z" fill="#E9E9E9"/>
<path d="M16.653 12.828V13.5H14.163V12.828H15.003V10.623C15.003 10.567 15.004 10.511 15.006 10.455C15.008 10.397 15.011 10.339 15.015 10.281L14.517 10.695C14.473 10.729 14.429 10.75 14.385 10.758C14.343 10.764 14.303 10.764 14.265 10.758C14.227 10.75 14.193 10.737 14.163 10.719C14.133 10.699 14.111 10.679 14.097 10.659L13.803 10.269L15.165 9.126H15.933V12.828H16.653ZM20.5085 12.66C20.6085 12.66 20.6875 12.688 20.7455 12.744C20.8035 12.798 20.8325 12.87 20.8325 12.96V13.5H17.7605V13.2C17.7605 13.142 17.7725 13.08 17.7965 13.014C17.8205 12.948 17.8625 12.888 17.9225 12.834L19.1825 11.565C19.2905 11.457 19.3845 11.354 19.4645 11.256C19.5445 11.158 19.6105 11.062 19.6625 10.968C19.7145 10.872 19.7535 10.777 19.7795 10.683C19.8055 10.587 19.8185 10.486 19.8185 10.38C19.8185 10.206 19.7765 10.073 19.6925 9.981C19.6105 9.887 19.4845 9.84 19.3145 9.84C19.1765 9.84 19.0595 9.877 18.9635 9.951C18.8695 10.023 18.8045 10.113 18.7685 10.221C18.7265 10.331 18.6715 10.404 18.6035 10.44C18.5355 10.476 18.4385 10.484 18.3125 10.464L17.8205 10.377C17.8525 10.159 17.9135 9.969 18.0035 9.807C18.0955 9.645 18.2085 9.51 18.3425 9.402C18.4785 9.294 18.6335 9.214 18.8075 9.162C18.9815 9.108 19.1685 9.081 19.3685 9.081C19.5845 9.081 19.7785 9.113 19.9505 9.177C20.1245 9.239 20.2725 9.326 20.3945 9.438C20.5165 9.55 20.6095 9.684 20.6735 9.84C20.7395 9.994 20.7725 10.164 20.7725 10.35C20.7725 10.51 20.7495 10.658 20.7035 10.794C20.6595 10.93 20.5985 11.06 20.5205 11.184C20.4425 11.306 20.3515 11.425 20.2475 11.541C20.1455 11.655 20.0365 11.771 19.9205 11.889L19.0655 12.765C19.1755 12.731 19.2845 12.705 19.3925 12.687C19.5005 12.669 19.6005 12.66 19.6925 12.66H20.5085ZM21.9249 10.377C21.9569 10.159 22.0179 9.969 22.1079 9.807C22.1999 9.645 22.3129 9.51 22.4469 9.402C22.5829 9.294 22.7379 9.214 22.9119 9.162C23.0859 9.108 23.2729 9.081 23.4729 9.081C23.6889 9.081 23.8809 9.112 24.0489 9.174C24.2169 9.234 24.3589 9.316 24.4749 9.42C24.5909 9.524 24.6789 9.645 24.7389 9.783C24.7989 9.919 24.8289 10.063 24.8289 10.215C24.8289 10.353 24.8149 10.475 24.7869 10.581C24.7589 10.685 24.7169 10.776 24.6609 10.854C24.6069 10.93 24.5389 10.995 24.4569 11.049C24.3769 11.101 24.2849 11.145 24.1809 11.181C24.6649 11.351 24.9069 11.681 24.9069 12.171C24.9069 12.403 24.8649 12.605 24.7809 12.777C24.6969 12.949 24.5839 13.092 24.4419 13.206C24.3019 13.32 24.1389 13.406 23.9529 13.464C23.7669 13.52 23.5729 13.548 23.3709 13.548C23.1629 13.548 22.9779 13.526 22.8159 13.482C22.6539 13.436 22.5099 13.366 22.3839 13.272C22.2579 13.176 22.1469 13.054 22.0509 12.906C21.9569 12.758 21.8749 12.582 21.8049 12.378L22.2189 12.21C22.3269 12.168 22.4269 12.157 22.5189 12.177C22.6109 12.197 22.6769 12.243 22.7169 12.315C22.8069 12.481 22.9019 12.602 23.0019 12.678C23.1039 12.752 23.2229 12.789 23.3589 12.789C23.4629 12.789 23.5529 12.772 23.6289 12.738C23.7069 12.702 23.7709 12.657 23.8209 12.603C23.8729 12.547 23.9119 12.484 23.9379 12.414C23.9639 12.344 23.9769 12.273 23.9769 12.201C23.9769 12.107 23.9699 12.023 23.9559 11.949C23.9439 11.873 23.9079 11.808 23.8479 11.754C23.7879 11.7 23.6969 11.659 23.5749 11.631C23.4549 11.601 23.2869 11.586 23.0709 11.586V10.944C23.2529 10.944 23.3999 10.93 23.5119 10.902C23.6239 10.874 23.7099 10.836 23.7699 10.788C23.8319 10.738 23.8729 10.678 23.8929 10.608C23.9129 10.538 23.9229 10.461 23.9229 10.377C23.9229 10.205 23.8809 10.073 23.7969 9.981C23.7149 9.887 23.5889 9.84 23.4189 9.84C23.2809 9.84 23.1639 9.877 23.0679 9.951C22.9739 10.023 22.9089 10.113 22.8729 10.221C22.8309 10.331 22.7759 10.404 22.7079 10.44C22.6399 10.476 22.5429 10.484 22.4169 10.464L21.9249 10.377Z" fill="#7B7B7B"/>
</svg>