<svg xmlns="http://www.w3.org/2000/svg" width="24" height="24" viewBox="0 0 24 24" fill="none">
<path d="M24 17.3653C24 19.372 22.3285 21 20.2664 21H0V6.63473C0 4.62724 1.6715 3 3.73358 3H24V17.3653Z" fill="white"/>
<path d="M17.3921 13.6849H18.9356C18.9838 13.6849 19.0756 13.6776 19.12 13.668C19.4165 13.6058 19.6634 13.3493 19.6634 13.0006C19.6634 12.6518 19.4165 12.3947 19.12 12.3324C19.0764 12.3229 18.9846 12.3156 18.9356 12.3156H17.3921V13.6849Z" fill="url(#paint0_linear_146_7903)"/>
<path d="M18.7553 4.21265C17.2825 4.21265 16.0889 5.37465 16.0889 6.80846V9.50465H19.8623C19.9496 9.50465 20.0565 9.51051 20.1235 9.51418C20.9777 9.55594 21.6068 9.98308 21.6068 10.7238C21.6068 11.3063 21.1764 11.8045 20.3929 11.9166V11.9459C21.2584 12.0045 21.9207 12.4683 21.9207 13.1987C21.9207 13.9893 21.1937 14.497 20.2243 14.497H16.0889V19.789H20.0001C21.4729 19.789 22.6665 18.6263 22.6665 17.1932V4.21265H18.7553Z" fill="url(#paint1_linear_146_7903)"/>
<path d="M19.4798 10.9116C19.4798 10.5687 19.2329 10.3386 18.9432 10.291C18.9161 10.2866 18.8423 10.2793 18.7911 10.2793H17.3921V11.5431H18.7911C18.8423 11.5431 18.9161 11.5358 18.9432 11.5314C19.2329 11.4845 19.4798 11.2545 19.4798 10.9116Z" fill="url(#paint2_linear_146_7903)"/>
<path d="M3.99993 4.21265C2.52712 4.21265 1.33352 5.37465 1.33352 6.80846V13.2192C2.08159 13.5716 2.85374 13.8017 3.64019 13.8017C4.56211 13.8017 5.0686 13.2537 5.0686 12.5166V9.50465H7.36174V12.5166C7.36174 13.6947 6.61893 14.6399 4.06992 14.6399C2.53615 14.6399 1.33276 14.3175 1.33276 14.3175V19.7883H5.24396C6.71677 19.7883 7.91037 18.6255 7.91037 17.1925V4.21265H3.99993Z" fill="url(#paint3_linear_146_7903)"/>
<path d="M11.3776 4.21265C9.90478 4.21265 8.71118 5.37465 8.71118 6.80846V10.2073C9.387 9.64312 10.555 9.29072 12.4538 9.37351C13.4698 9.41747 14.5475 9.68269 14.5475 9.68269V10.7817C14.0079 10.5157 13.3614 10.2688 12.5283 10.208C11.0879 10.1018 10.2209 10.7875 10.2209 12.0008C10.2209 13.2141 11.0879 13.8991 12.5283 13.7929C13.3614 13.7321 14.0169 13.4786 14.5475 13.22V14.3182C14.5475 14.3182 13.4698 14.5835 12.4538 14.6281C10.5558 14.7109 9.387 14.3585 8.71118 13.7944V19.789H12.6224C14.0952 19.789 15.2888 18.6263 15.2888 17.1932V4.21265H11.3776Z" fill="url(#paint4_linear_146_7903)"/>
<defs>
<linearGradient id="paint0_linear_146_7903" x1="16.0886" y1="13.0006" x2="22.6833" y2="13.0006" gradientUnits="userSpaceOnUse">
<stop stop-color="#00763C"/>
<stop offset="0.2285" stop-color="#00843B"/>
<stop offset="0.7433" stop-color="#4DA534"/>
<stop offset="1" stop-color="#65B32E"/>
</linearGradient>
<linearGradient id="paint1_linear_146_7903" x1="16.0887" y1="12.0005" x2="22.6837" y2="12.0005" gradientUnits="userSpaceOnUse">
<stop stop-color="#00763C"/>
<stop offset="0.2285" stop-color="#00843B"/>
<stop offset="0.7433" stop-color="#4DA534"/>
<stop offset="1" stop-color="#65B32E"/>
</linearGradient>
<linearGradient id="paint2_linear_146_7903" x1="16.0885" y1="10.9117" x2="22.6831" y2="10.9117" gradientUnits="userSpaceOnUse">
<stop stop-color="#00763C"/>
<stop offset="0.2285" stop-color="#00843B"/>
<stop offset="0.7433" stop-color="#4DA534"/>
<stop offset="1" stop-color="#65B32E"/>
</linearGradient>
<linearGradient id="paint3_linear_146_7903" x1="1.3248" y1="12.0005" x2="8.02155" y2="12.0005" gradientUnits="userSpaceOnUse">
<stop stop-color="#312B6B"/>
<stop offset="0.4751" stop-color="#004E90"/>
<stop offset="0.8261" stop-color="#0066AD"/>
<stop offset="1" stop-color="#006FB9"/>
</linearGradient>
<linearGradient id="paint4_linear_146_7903" x1="8.67162" y1="12.0005" x2="15.1756" y2="12.0005" gradientUnits="userSpaceOnUse">
<stop stop-color="#6E2E2B"/>
<stop offset="0.1735" stop-color="#882A2D"/>
<stop offset="0.5731" stop-color="#BD1D32"/>
<stop offset="0.8585" stop-color="#DA0C38"/>
<stop offset="1" stop-color="#E4003A"/>
</linearGradient>
</defs>
</svg>