<svg xmlns="http://www.w3.org/2000/svg" width="140" height="16" viewBox="0 0 140 16" fill="none">
<path d="M10.2684 4.72C10.2418 3.98667 10.1018 3.37333 9.84844 2.88C9.60844 2.37333 9.28177 1.96667 8.86844 1.66C8.46844 1.34 7.98844 1.11333 7.42844 0.979999C6.86844 0.846666 6.26844 0.779999 5.62844 0.779999C5.1351 0.779999 4.62177 0.833333 4.08844 0.94C3.5551 1.03333 3.06844 1.20667 2.62844 1.46C2.20177 1.71333 1.84844 2.05333 1.56844 2.48C1.28844 2.89333 1.14844 3.42 1.14844 4.06C1.14844 4.7 1.28844 5.21333 1.56844 5.6C1.86177 5.98667 2.2351 6.3 2.68844 6.54C3.1551 6.78 3.68177 6.96667 4.26844 7.1C4.8551 7.23333 5.4551 7.37333 6.06844 7.52C6.7351 7.69333 7.36177 7.86 7.94844 8.02C8.54844 8.18 9.06844 8.39333 9.50844 8.66C9.94844 8.92667 10.2951 9.28 10.5484 9.72C10.8151 10.16 10.9484 10.7533 10.9484 11.5C10.9484 12.18 10.8018 12.76 10.5084 13.24C10.2151 13.72 9.82844 14.12 9.34844 14.44C8.86844 14.7467 8.32844 14.9667 7.72844 15.1C7.12844 15.2467 6.52177 15.32 5.90844 15.32C5.0951 15.32 4.34177 15.2267 3.64844 15.04C2.96844 14.8533 2.3751 14.56 1.86844 14.16C1.3751 13.7467 0.988438 13.22 0.708438 12.58C0.441771 11.94 0.315104 11.1667 0.328438 10.26H0.728438C0.728438 11.1133 0.855104 11.84 1.10844 12.44C1.36177 13.0267 1.7151 13.5067 2.16844 13.88C2.6351 14.2533 3.18177 14.5267 3.80844 14.7C4.44844 14.86 5.14844 14.94 5.90844 14.94C6.46844 14.94 7.02177 14.88 7.56844 14.76C8.12844 14.6267 8.62844 14.42 9.06844 14.14C9.50844 13.86 9.86177 13.5 10.1284 13.06C10.4084 12.62 10.5484 12.0933 10.5484 11.48C10.5484 10.76 10.3884 10.1933 10.0684 9.78C9.76177 9.35333 9.36177 9.02 8.86844 8.78C8.38844 8.52667 7.84844 8.34 7.24844 8.22C6.66177 8.08667 6.0951 7.95333 5.54844 7.82C4.9751 7.68667 4.40177 7.54667 3.82844 7.4C3.2551 7.25333 2.7351 7.05333 2.26844 6.8C1.8151 6.53333 1.44844 6.18667 1.16844 5.76C0.888438 5.32 0.748438 4.75333 0.748438 4.06C0.748438 3.35333 0.895104 2.76667 1.18844 2.3C1.48177 1.82 1.86177 1.44 2.32844 1.16C2.7951 0.879999 3.3151 0.679999 3.88844 0.559999C4.4751 0.44 5.0551 0.38 5.62844 0.38C6.3351 0.38 6.98177 0.46 7.56844 0.619999C8.16844 0.766666 8.68844 1.01333 9.12844 1.36C9.58177 1.69333 9.94177 2.14 10.2084 2.7C10.4751 3.24667 10.6284 3.92 10.6684 4.72H10.2684ZM28.695 14.6V15H19.955V0.719999H20.355V14.6H28.695ZM36.1439 7.86C36.1439 6.84667 36.2839 5.88667 36.5639 4.98C36.8572 4.07333 37.2772 3.28 37.8239 2.6C38.3839 1.92 39.0706 1.38 39.8839 0.979999C40.7106 0.58 41.6572 0.38 42.7239 0.38C43.7906 0.38 44.7306 0.58 45.5439 0.979999C46.3706 1.38 47.0572 1.92 47.6039 2.6C48.1639 3.28 48.5839 4.07333 48.8639 4.98C49.1572 5.88667 49.3039 6.84667 49.3039 7.86C49.3039 8.87333 49.1572 9.83333 48.8639 10.74C48.5839 11.6467 48.1639 12.44 47.6039 13.12C47.0572 13.8 46.3706 14.34 45.5439 14.74C44.7306 15.1267 43.7906 15.32 42.7239 15.32C41.6572 15.32 40.7106 15.1267 39.8839 14.74C39.0706 14.34 38.3839 13.8 37.8239 13.12C37.2772 12.44 36.8572 11.6467 36.5639 10.74C36.2839 9.83333 36.1439 8.87333 36.1439 7.86ZM36.5439 7.86C36.5572 8.88667 36.7039 9.83333 36.9839 10.7C37.2772 11.5667 37.6839 12.3133 38.2039 12.94C38.7372 13.5667 39.3839 14.06 40.1439 14.42C40.9039 14.7667 41.7639 14.94 42.7239 14.94C43.6839 14.94 44.5439 14.7667 45.3039 14.42C46.0639 14.06 46.7039 13.5667 47.2239 12.94C47.7572 12.3133 48.1639 11.5667 48.4439 10.7C48.7372 9.83333 48.8906 8.88667 48.9039 7.86C48.8906 6.83333 48.7372 5.88667 48.4439 5.02C48.1639 4.15333 47.7572 3.40667 47.2239 2.78C46.7039 2.15333 46.0639 1.66667 45.3039 1.32C44.5439 0.96 43.6839 0.779999 42.7239 0.779999C41.7639 0.779999 40.9039 0.96 40.1439 1.32C39.3839 1.66667 38.7372 2.15333 38.2039 2.78C37.6839 3.40667 37.2772 4.15333 36.9839 5.02C36.7039 5.88667 36.5572 6.83333 36.5439 7.86ZM74.118 0.719999H74.518L70.378 15H69.838L65.638 1.22H65.598L61.478 15H60.938L56.738 0.719999H57.138L61.178 14.5H61.218L65.338 0.719999H65.918L70.098 14.5H70.138L74.118 0.719999ZM82.8003 14.6H86.8803C87.7203 14.6 88.5136 14.4667 89.2603 14.2C90.0203 13.92 90.6803 13.5067 91.2403 12.96C91.8136 12.4 92.2603 11.7 92.5803 10.86C92.9136 10.0067 93.0803 9.00667 93.0803 7.86C93.0803 6.52667 92.9136 5.42667 92.5803 4.56C92.247 3.69333 91.807 3.00667 91.2603 2.5C90.7136 1.98 90.0936 1.62 89.4003 1.42C88.7203 1.22 88.0203 1.12 87.3003 1.12H82.8003V14.6ZM82.4003 0.719999H87.4003C88.107 0.719999 88.8203 0.833333 89.5403 1.06C90.2736 1.27333 90.927 1.65333 91.5003 2.2C92.087 2.73333 92.5603 3.46 92.9203 4.38C93.2936 5.3 93.4803 6.46 93.4803 7.86C93.4803 9.14 93.2936 10.2333 92.9203 11.14C92.547 12.0467 92.047 12.7867 91.4203 13.36C90.7936 13.92 90.0803 14.3333 89.2803 14.6C88.4803 14.8667 87.647 15 86.7803 15H82.4003V0.719999ZM102.369 0.719999H102.769V15H102.369V0.719999ZM121.568 0.719999H121.968L116.528 15H116.088L110.508 0.719999H110.888L116.288 14.48H116.328L121.568 0.719999ZM130.089 14.6H139.249V15H129.689V0.719999H139.169V1.12H130.089V7.36H138.629V7.76H130.089V14.6Z" fill="white"/>
</svg>