<svg xmlns="http://www.w3.org/2000/svg" width="24" height="24" viewBox="0 0 24 24" fill="none">
<path d="M9.51152 12.0017C9.51072 10.9805 9.74222 9.97247 10.1885 9.05393C10.6348 8.1354 11.2842 7.33042 12.0875 6.6999C11.0925 5.91798 9.89766 5.43174 8.63944 5.29678C7.38121 5.16181 6.1104 5.38355 4.97224 5.93666C3.83408 6.48976 2.87449 7.35192 2.20315 8.4246C1.5318 9.49727 1.17578 10.7372 1.17578 12.0026C1.17578 13.2681 1.5318 14.508 2.20315 15.5807C2.87449 16.6533 3.83408 17.5155 4.97224 18.0686C6.1104 18.6217 7.38121 18.8434 8.63944 18.7085C9.89766 18.5735 11.0925 18.0873 12.0875 17.3054C11.2839 16.6746 10.6344 15.8694 10.1881 14.9505C9.74179 14.0316 9.51043 13.0232 9.51152 12.0017Z" fill="#EB001B"/>
<path d="M23.0001 11.9999C23.0001 13.2655 22.644 14.5055 21.9725 15.5782C21.301 16.6509 20.3413 17.513 19.203 18.0661C18.0647 18.6191 16.7937 18.8407 15.5355 18.7055C14.2772 18.5704 13.0823 18.0839 12.0874 17.3017C12.8904 16.6707 13.5396 15.8655 13.986 14.9469C14.4324 14.0283 14.6643 13.0203 14.6643 11.999C14.6643 10.9777 14.4324 9.96973 13.986 9.05115C13.5396 8.13257 12.8904 7.32736 12.0874 6.69629C13.0823 5.91412 14.2772 5.42765 15.5355 5.29249C16.7937 5.15732 18.0647 5.37892 19.203 5.93195C20.3413 6.48498 21.301 7.34713 21.9725 8.41984C22.644 9.49255 23.0001 10.7325 23.0001 11.9981V11.9999Z" fill="#F79E1B"/>
<path fill-rule="evenodd" clip-rule="evenodd" d="M10.1885 9.05389C9.74219 9.97244 9.51068 10.9804 9.51148 12.0016C9.51041 13.0232 9.74176 14.0316 10.1881 14.9504C10.6331 15.8667 11.2802 16.67 12.0805 17.2999H12.0897C12.8917 16.6691 13.5401 15.8645 13.986 14.9468C14.4324 14.0283 14.6644 13.0203 14.6644 11.999C14.6644 10.9777 14.4324 9.9697 13.986 9.05112C13.5396 8.13254 12.8904 7.32733 12.0874 6.69626L12.0897 6.69446H12.0805C12.0828 6.69626 12.0851 6.69806 12.0874 6.69986C11.2841 7.33038 10.6348 8.13538 10.1885 9.05389Z" fill="#FF5F00"/>
</svg>