<svg xmlns="http://www.w3.org/2000/svg" width="302" height="28" viewBox="0 0 302 28" fill="none">
<rect x="0.644531" y="0.105469" width="38.676" height="26.905" rx="2.5" fill="white"/>
<rect x="0.644531" y="0.105469" width="38.676" height="26.905" rx="2.5" stroke="#D9D9D9"/>
<path fill-rule="evenodd" clip-rule="evenodd" d="M9.86756 10.1196C10.387 10.164 10.9064 9.85287 11.231 9.45837C11.5502 9.05277 11.7612 8.50826 11.7071 7.95264C11.2472 7.97486 10.6791 8.26379 10.3545 8.66939C10.0569 9.01943 9.80263 9.58617 9.86756 10.1196ZM16.0464 17.276V8.61382H19.2115C20.8455 8.61382 21.9871 9.76952 21.9871 11.4586C21.9871 13.1477 20.8239 14.3145 19.1682 14.3145H17.3557V17.276H16.0464ZM11.7017 10.2252C11.2441 10.1981 10.8266 10.3665 10.4893 10.5025C10.2723 10.59 10.0885 10.6641 9.94869 10.6641C9.79179 10.6641 9.60041 10.586 9.38555 10.4984C9.104 10.3835 8.78212 10.2522 8.44457 10.2585C7.67087 10.2696 6.95127 10.7197 6.5563 11.4364C5.74473 12.8699 6.3453 14.9924 7.12982 16.1592C7.51396 16.737 7.97386 17.3705 8.57983 17.3482C8.84643 17.3379 9.0382 17.2543 9.23666 17.1679C9.46515 17.0683 9.70251 16.9649 10.0731 16.9649C10.4309 16.9649 10.6579 17.0656 10.8758 17.1623C11.0829 17.2542 11.2819 17.3425 11.5773 17.3371C12.2049 17.326 12.5998 16.7593 12.984 16.1814C13.3985 15.5612 13.5807 14.956 13.6084 14.8641L13.6116 14.8535C13.6109 14.8528 13.6058 14.8504 13.5968 14.8462L13.5968 14.8462L13.5968 14.8462C13.4582 14.781 12.399 14.283 12.3888 12.9477C12.3786 11.8269 13.229 11.259 13.3628 11.1696L13.3628 11.1696C13.371 11.1642 13.3765 11.1605 13.379 11.1586C12.8379 10.3363 11.9939 10.2474 11.7017 10.2252ZM24.3786 17.3426C25.201 17.3426 25.9639 16.9148 26.3102 16.2369H26.3372V17.2759H27.5492V12.9643C27.5492 11.7142 26.5753 10.9085 25.0766 10.9085C23.6861 10.9085 22.6581 11.7253 22.6202 12.8476H23.7997C23.8971 12.3142 24.3786 11.9642 25.0387 11.9642C25.8394 11.9642 26.2885 12.3476 26.2885 13.0532V13.5311L24.6545 13.6311C23.1342 13.7255 22.3118 14.3645 22.3118 15.4757C22.3118 16.5981 23.1612 17.3426 24.3786 17.3426ZM24.7302 16.3147C24.0323 16.3147 23.5886 15.9703 23.5886 15.4424C23.5886 14.8979 24.016 14.5812 24.833 14.5312L26.2884 14.4367V14.9257C26.2884 15.7369 25.6175 16.3147 24.7302 16.3147ZM31.5691 17.6149C31.0443 19.1318 30.4438 19.6318 29.1669 19.6318C29.0695 19.6318 28.7449 19.6207 28.6691 19.5985V18.5595C28.7503 18.5706 28.9505 18.5817 29.0533 18.5817C29.6322 18.5817 29.9568 18.3317 30.157 17.6816L30.276 17.2982L28.0577 10.9919H29.4266L30.9686 16.1092H30.9956L32.5376 10.9919H33.8686L31.5691 17.6149ZM17.3556 9.74731H18.8651C20.0013 9.74731 20.6506 10.3696 20.6506 11.4642C20.6506 12.5588 20.0013 13.1866 18.8597 13.1866H17.3556V9.74731Z" fill="black"/>
<rect x="44.3652" y="0.105469" width="38.676" height="26.905" rx="2.5" fill="white"/>
<rect x="44.3652" y="0.105469" width="38.676" height="26.905" rx="2.5" stroke="#D9D9D9"/>
<path fill-rule="evenodd" clip-rule="evenodd" d="M62.6327 17.771V14.3844H64.3556C65.0616 14.3844 65.6575 14.1444 66.1433 13.6711L66.2599 13.5511C67.1473 12.5711 67.089 11.0444 66.1433 10.1378C65.6705 9.6578 65.0228 9.3978 64.3556 9.41113H61.5898V17.771H62.6327ZM62.6328 13.3578V10.4378H64.3819C64.7576 10.4378 65.1139 10.5845 65.3795 10.8511C65.9432 11.4111 65.9561 12.3444 65.4119 12.9244C65.1463 13.2111 64.7706 13.3711 64.3819 13.3578H62.6328ZM71.1243 12.4978C70.6774 12.0778 70.0685 11.8645 69.2977 11.8645C68.3067 11.8645 67.5618 12.2378 67.0696 12.9778L67.9893 13.5711C68.3262 13.0644 68.786 12.8111 69.369 12.8111C69.7382 12.8111 70.0944 12.9511 70.3729 13.2044C70.645 13.4444 70.8004 13.7911 70.8004 14.1578V14.4044C70.3989 14.1778 69.8936 14.0578 69.2718 14.0578C68.5464 14.0578 67.9634 14.2311 67.5295 14.5844C67.0955 14.9377 66.8753 15.4044 66.8753 15.9977C66.8623 16.5377 67.089 17.051 67.4906 17.3977C67.8987 17.771 68.4168 17.9577 69.0257 17.9577C69.7447 17.9577 70.3146 17.631 70.7486 16.9777H70.794V17.771H71.7914V14.2444C71.7914 13.5044 71.5712 12.9178 71.1243 12.4978ZM68.294 16.7177C68.0802 16.5577 67.9506 16.2977 67.9506 16.0177C67.9506 15.7043 68.0931 15.4443 68.3717 15.2377C68.6567 15.031 69.013 14.9244 69.4341 14.9244C70.0172 14.9177 70.4706 15.051 70.7945 15.3177C70.7945 15.771 70.6196 16.1643 70.2763 16.4977C69.9653 16.8177 69.5442 16.9977 69.1037 16.9977C68.8122 17.0043 68.5272 16.9043 68.294 16.7177ZM74.0326 20.2844L77.5173 12.0511H76.3838L74.771 16.1577H74.7515L73.0998 12.0511H71.9663L74.2528 17.4044L72.9573 20.2844H74.0326Z" fill="#3C4043"/>
<path d="M59.0324 13.6511C59.0324 13.3244 59.0065 12.9977 58.9546 12.6777H54.5566V14.5244H57.0763C56.9726 15.1177 56.6358 15.651 56.1436 15.9844V17.1843H57.6463C58.5272 16.351 59.0324 15.1177 59.0324 13.6511Z" fill="#4285F4"/>
<path d="M54.5555 18.3443C55.812 18.3443 56.8743 17.9176 57.6451 17.1843L56.1424 15.9843C55.7213 16.2777 55.1837 16.4443 54.5555 16.4443C53.3377 16.4443 52.3079 15.5977 51.9387 14.4644H50.3906V15.7043C51.1808 17.3243 52.7937 18.3443 54.5555 18.3443Z" fill="#34A853"/>
<path d="M51.9394 14.4644C51.745 13.8711 51.745 13.2244 51.9394 12.6244V11.3911H50.3911C49.7238 12.7444 49.7238 14.3444 50.3911 15.6977L51.9394 14.4644Z" fill="#FBBC04"/>
<path d="M54.5555 10.6444C55.2226 10.6311 55.8638 10.8911 56.3432 11.3644L57.6775 9.99108C56.8289 9.17776 55.7149 8.7311 54.5555 8.74443C52.7937 8.74443 51.1808 9.77108 50.3906 11.3911L51.9387 12.631C52.3079 11.4911 53.3377 10.6444 54.5555 10.6444Z" fill="#EA4335"/>
<rect x="88.0859" y="0.105469" width="38.676" height="26.905" rx="2.5" fill="white"/>
<rect x="88.0859" y="0.105469" width="38.676" height="26.905" rx="2.5" stroke="#D9D9D9"/>
<path fill-rule="evenodd" clip-rule="evenodd" d="M99.1847 17.1909H97.4407C97.3214 17.1909 97.2199 17.2777 97.2013 17.3954L96.496 21.8673C96.482 21.9556 96.5503 22.0351 96.6398 22.0351H97.4724C97.5917 22.0351 97.6932 21.9484 97.7118 21.8304L97.902 20.6243C97.9204 20.5061 98.0221 20.4195 98.1412 20.4195H98.6933C99.8421 20.4195 100.505 19.8636 100.678 18.762C100.756 18.2801 100.682 17.9014 100.456 17.6361C100.208 17.345 99.7683 17.1909 99.1847 17.1909ZM99.3858 18.8242C99.2905 19.45 98.8124 19.45 98.3501 19.45H98.0869L98.2715 18.2813C98.2825 18.2107 98.3437 18.1587 98.4151 18.1587H98.5357C98.8506 18.1587 99.1477 18.1587 99.3012 18.3382C99.3927 18.4453 99.4208 18.6044 99.3858 18.8242ZM104.398 18.8042H103.563C103.491 18.8042 103.43 18.8562 103.419 18.9269L103.382 19.1604L103.324 19.0758C103.143 18.8134 102.74 18.7257 102.337 18.7257C101.414 18.7257 100.626 19.4246 100.473 20.4051C100.393 20.8941 100.506 21.3618 100.784 21.688C101.038 21.9878 101.402 22.1128 101.836 22.1128C102.579 22.1128 102.992 21.6346 102.992 21.6346L102.954 21.8667C102.94 21.9555 103.009 22.035 103.098 22.035H103.85C103.97 22.035 104.07 21.9483 104.089 21.8303L104.541 18.972C104.555 18.8841 104.487 18.8042 104.398 18.8042ZM103.234 20.4296C103.153 20.9067 102.774 21.2269 102.291 21.2269C102.049 21.2269 101.855 21.1492 101.731 21.0018C101.607 20.8554 101.56 20.647 101.6 20.415C101.675 19.942 102.06 19.6113 102.535 19.6113C102.772 19.6113 102.965 19.69 103.092 19.8387C103.219 19.9889 103.27 20.1985 103.234 20.4296ZM108.006 18.804H108.845C108.963 18.804 109.031 18.9359 108.965 19.0323L106.173 23.0612C106.128 23.1264 106.054 23.1653 105.974 23.1653H105.136C105.018 23.1653 104.949 23.0324 105.018 22.9357L105.887 21.709L104.962 18.9963C104.93 18.902 105 18.804 105.1 18.804H105.925C106.032 18.804 106.127 18.8744 106.157 18.9769L106.648 20.6153L107.805 18.9104C107.851 18.8438 107.926 18.804 108.006 18.804Z" fill="#253B80"/>
<path fill-rule="evenodd" clip-rule="evenodd" d="M117.105 21.8676L117.821 17.3139C117.832 17.2432 117.893 17.1912 117.964 17.1909H118.77C118.859 17.1909 118.927 17.2707 118.913 17.359L118.208 21.8306C118.189 21.9486 118.088 22.0354 117.968 22.0354H117.249C117.16 22.0354 117.091 21.9558 117.105 21.8676ZM111.624 17.1912H109.88C109.761 17.1912 109.659 17.2779 109.641 17.3957L108.935 21.8676C108.921 21.9558 108.99 22.0354 109.079 22.0354H109.974C110.057 22.0354 110.128 21.9747 110.141 21.8921L110.341 20.6245C110.36 20.5064 110.461 20.4198 110.58 20.4198H111.132C112.281 20.4198 112.944 19.8638 113.117 18.7623C113.196 18.2803 113.12 17.9017 112.895 17.6364C112.647 17.3453 112.208 17.1912 111.624 17.1912ZM111.825 18.8245C111.73 19.4502 111.252 19.4502 110.79 19.4502H110.527L110.712 18.2815C110.722 18.211 110.783 18.1589 110.855 18.1589H110.975C111.29 18.1589 111.587 18.1589 111.741 18.3384C111.832 18.4455 111.86 18.6046 111.825 18.8245ZM116.837 18.8044H116.002C115.93 18.8044 115.87 18.8564 115.859 18.9271L115.822 19.1607L115.763 19.076C115.582 18.8136 115.18 18.7259 114.777 18.7259C113.854 18.7259 113.066 19.4249 112.913 20.4054C112.833 20.8944 112.946 21.362 113.224 21.6882C113.479 21.988 113.842 22.113 114.276 22.113C115.019 22.113 115.431 21.6349 115.431 21.6349L115.394 21.867C115.38 21.9557 115.448 22.0353 115.538 22.0353H116.29C116.409 22.0353 116.511 21.9485 116.529 21.8305L116.981 18.9722C116.995 18.8843 116.926 18.8044 116.837 18.8044ZM115.673 20.4298C115.593 20.9069 115.213 21.2272 114.73 21.2272C114.488 21.2272 114.294 21.1494 114.17 21.002C114.046 20.8557 114 20.6473 114.039 20.4153C114.114 19.9422 114.499 19.6116 114.974 19.6116C115.212 19.6116 115.404 19.6903 115.531 19.8389C115.659 19.9892 115.71 20.1987 115.673 20.4298Z" fill="#179BD7"/>
<path d="M105.639 15.5911L105.854 14.2294L105.376 14.2183H103.096L104.681 4.16943C104.685 4.13909 104.701 4.11081 104.725 4.09072C104.748 4.07064 104.778 4.05957 104.809 4.05957H108.654C109.931 4.05957 110.812 4.32521 111.272 4.84952C111.487 5.09549 111.625 5.35251 111.691 5.63537C111.761 5.93218 111.762 6.28677 111.694 6.71926L111.689 6.75082V7.02793L111.905 7.1501C112.086 7.24643 112.231 7.35671 112.341 7.48297C112.526 7.69327 112.645 7.96055 112.696 8.27743C112.748 8.60333 112.73 8.99113 112.645 9.43018C112.547 9.93523 112.388 10.3751 112.173 10.735C111.975 11.0667 111.724 11.3417 111.425 11.5549C111.139 11.7574 110.8 11.9112 110.417 12.0096C110.046 12.1062 109.622 12.1551 109.158 12.1551H108.859C108.645 12.1551 108.437 12.2321 108.274 12.3703C108.11 12.5113 108.002 12.7039 107.969 12.9147L107.946 13.0373L107.567 15.4374L107.55 15.5255C107.546 15.5535 107.538 15.5674 107.526 15.5769C107.516 15.5854 107.501 15.5911 107.487 15.5911H105.639Z" fill="#253B80"/>
<path d="M112.109 6.7832C112.097 6.85658 112.084 6.93159 112.069 7.00866C111.562 9.61219 109.827 10.5116 107.612 10.5116H106.484C106.213 10.5116 105.984 10.7084 105.942 10.9756L105.364 14.6389L105.201 15.6772C105.173 15.8527 105.309 16.0109 105.486 16.0109H107.487C107.724 16.0109 107.925 15.8388 107.962 15.6051L107.982 15.5034L108.359 13.1126L108.383 12.9815C108.42 12.747 108.621 12.5749 108.858 12.5749H109.158C111.096 12.5749 112.614 11.7878 113.057 9.51012C113.243 8.55864 113.147 7.76419 112.656 7.20544C112.508 7.03695 112.324 6.89716 112.109 6.7832Z" fill="#179BD7"/>
<path d="M111.578 6.57166C111.5 6.54911 111.42 6.52861 111.338 6.51017C111.256 6.49214 111.171 6.47615 111.085 6.46221C110.78 6.41301 110.447 6.38965 110.09 6.38965H107.076C107.002 6.38965 106.931 6.40645 106.868 6.43679C106.729 6.50361 106.626 6.6352 106.601 6.7963L105.96 10.8572L105.941 10.9756C105.984 10.7084 106.212 10.5116 106.483 10.5116H107.611C109.827 10.5116 111.562 9.61177 112.069 7.00865C112.084 6.93159 112.097 6.85657 112.108 6.78319C111.98 6.71514 111.841 6.65693 111.691 6.60732C111.654 6.59502 111.616 6.58314 111.578 6.57166Z" fill="#222D65"/>
<path d="M106.601 6.79626C106.626 6.63515 106.73 6.50356 106.869 6.43715C106.932 6.40681 107.002 6.39 107.076 6.39H110.09C110.447 6.39 110.781 6.41337 111.085 6.46256C111.172 6.4765 111.256 6.49249 111.339 6.51052C111.421 6.52898 111.5 6.54947 111.578 6.57201C111.616 6.58349 111.655 6.59538 111.692 6.60727C111.841 6.65687 111.981 6.7155 112.109 6.78314C112.26 5.82101 112.108 5.16593 111.587 4.57274C111.014 3.91971 109.979 3.64014 108.654 3.64014H104.809C104.538 3.64014 104.308 3.8369 104.266 4.10459L102.664 14.2567C102.633 14.4576 102.788 14.6388 102.99 14.6388H105.364L105.96 10.8571L106.601 6.79626Z" fill="#253B80"/>
<rect x="131.807" y="0.105469" width="38.676" height="26.905" rx="2.5" fill="#1F72CD"/>
<rect x="131.807" y="0.105469" width="38.676" height="26.905" rx="2.5" stroke="#D9D9D9"/>
<path fill-rule="evenodd" clip-rule="evenodd" d="M138.776 9.55664L135.17 17.8899H139.487L140.022 16.5612H141.245L141.78 17.8899H146.531V16.8758L146.955 17.8899H149.413L149.836 16.8544V17.8899H159.718L160.919 16.5957L162.044 17.8899L167.12 17.9006L163.502 13.7465L167.12 9.55664H162.123L160.953 10.8269L159.864 9.55664H149.114L148.191 11.7075L147.246 9.55664H142.938V10.5362L142.459 9.55664H138.776ZM153.532 10.74H159.206L160.942 12.6978L162.733 10.74H164.469L161.832 13.7453L164.469 16.7161H162.655L160.919 14.7355L159.119 16.7161H153.532V10.74ZM154.933 13.0696V11.9781V11.977H158.474L160.019 13.7227L158.405 15.478H154.933V14.2863H158.029V13.0696H154.933ZM139.611 10.74H141.715L144.107 16.3908V10.74H146.412L148.259 14.7916L149.962 10.74H152.255V16.7196H150.86L150.848 12.034L148.814 16.7196H147.565L145.519 12.034V16.7196H142.648L142.104 15.379H139.164L138.62 16.7184H137.082L139.611 10.74ZM139.666 14.1398L140.635 11.7517L141.602 14.1398H139.666Z" fill="white"/>
<rect x="175.527" y="0.105469" width="38.676" height="26.905" rx="2.5" fill="white"/>
<rect x="175.527" y="0.105469" width="38.676" height="26.905" rx="2.5" stroke="#D9D9D9"/>
<path d="M191.25 25.385L212.55 18.939V23.835C212.55 24.691 211.856 25.385 211 25.385H191.25Z" fill="#FD6020"/>
<path fill-rule="evenodd" clip-rule="evenodd" d="M208.479 10.3191C209.651 10.3191 210.295 10.8612 210.295 11.8851C210.354 12.6681 209.827 13.3306 209.124 13.4511L210.706 15.6796H209.475L208.128 13.5113H208.01V15.6796H207.014V10.3191H208.479ZM208.01 12.7885H208.303C208.948 12.7885 209.241 12.4874 209.241 11.9453C209.241 11.4635 208.948 11.1623 208.303 11.1623H208.01V12.7885ZM203.557 15.6796H206.37V14.7761H204.553V13.3306H206.311V12.4271H204.553V11.2225H206.37V10.3191H203.557V15.6796ZM200.628 13.9329L199.28 10.3191H198.226L200.394 15.8H200.921L203.089 10.3191H202.034L200.628 13.9329ZM188.734 13.0295C188.734 14.5352 189.906 15.8 191.371 15.8C191.839 15.8 192.249 15.6796 192.66 15.4989V14.2943C192.367 14.6557 191.956 14.8966 191.488 14.8966C190.55 14.8966 189.789 14.1738 189.789 13.2101V13.0897C189.73 12.126 190.492 11.2828 191.429 11.2225C191.898 11.2225 192.367 11.4635 192.66 11.8248V10.6202C192.308 10.3793 191.839 10.3191 191.429 10.3191C189.906 10.1986 188.734 11.4635 188.734 13.0295ZM186.918 12.3669C186.332 12.126 186.156 12.0055 186.156 11.7044C186.215 11.343 186.507 11.0419 186.859 11.1021C187.152 11.1021 187.445 11.2828 187.679 11.5237L188.207 10.8009C187.796 10.4395 187.269 10.1986 186.742 10.1986C185.922 10.1384 185.218 10.8009 185.16 11.6442V11.7044C185.16 12.4271 185.453 12.8488 186.39 13.1499C186.625 13.2101 186.859 13.3306 187.093 13.4511C187.269 13.5715 187.386 13.7522 187.386 13.9931C187.386 14.4147 187.035 14.7761 186.683 14.7761H186.625C186.156 14.7761 185.746 14.475 185.57 14.0534L184.926 14.7159C185.277 15.3784 185.98 15.7398 186.683 15.7398C187.621 15.8 188.382 15.0773 188.441 14.1136V13.9329C188.382 13.2101 188.089 12.8488 186.918 12.3669ZM183.519 15.6796H184.515V10.3191H183.519V15.6796ZM178.891 10.3191H180.355H180.648C182.055 10.3793 183.168 11.5839 183.109 13.0295C183.109 13.8125 182.758 14.5352 182.172 15.0773C181.644 15.4989 181 15.7398 180.355 15.6796H178.891V10.3191ZM180.18 14.7761C180.648 14.8364 181.176 14.6557 181.527 14.3545C181.879 13.9931 182.055 13.5113 182.055 12.9692C182.055 12.4874 181.879 12.0055 181.527 11.6442C181.176 11.343 180.648 11.1623 180.18 11.2225H179.887V14.7761H180.18Z" fill="black"/>
<path fill-rule="evenodd" clip-rule="evenodd" d="M195.648 10.1948C194.184 10.1948 192.953 11.3994 192.953 12.9654C192.953 14.4712 194.125 15.736 195.648 15.7962C197.172 15.8565 198.343 14.5916 198.402 13.0256C198.343 11.4597 197.172 10.1948 195.648 10.1948V10.1948Z" fill="#FD6020"/>
<rect x="219.248" y="0.105469" width="38.676" height="26.905" rx="2.5" fill="white"/>
<rect x="219.248" y="0.105469" width="38.676" height="26.905" rx="2.5" stroke="#D9D9D9"/>
<path fill-rule="evenodd" clip-rule="evenodd" d="M238.947 19.7756C237.471 21.0137 235.557 21.7612 233.465 21.7612C228.797 21.7612 225.014 18.0399 225.014 13.4494C225.014 8.85899 228.797 5.1377 233.465 5.1377C235.557 5.1377 237.471 5.88514 238.947 7.12328C240.422 5.88515 242.337 5.13772 244.428 5.13772C249.096 5.13772 252.88 8.85901 252.88 13.4495C252.88 18.0399 249.096 21.7612 244.428 21.7612C242.337 21.7612 240.422 21.0138 238.947 19.7756Z" fill="#ED0006"/>
<path fill-rule="evenodd" clip-rule="evenodd" d="M238.947 19.7756C240.764 18.2511 241.917 15.9826 241.917 13.4494C241.917 10.9163 240.764 8.64778 238.947 7.12325C240.423 5.88513 242.337 5.1377 244.429 5.1377C249.096 5.1377 252.88 8.85899 252.88 13.4494C252.88 18.0399 249.096 21.7612 244.429 21.7612C242.337 21.7612 240.423 21.0138 238.947 19.7756Z" fill="#F9A000"/>
<path fill-rule="evenodd" clip-rule="evenodd" d="M238.946 19.7758C240.763 18.2513 241.915 15.9828 241.915 13.4497C241.915 10.9165 240.763 8.64806 238.946 7.12354C237.129 8.64806 235.977 10.9165 235.977 13.4497C235.977 15.9828 237.129 18.2513 238.946 19.7758Z" fill="#FF5E00"/>
<rect x="262.969" y="0.105469" width="38.676" height="26.905" rx="2.5" fill="white"/>
<rect x="262.969" y="0.105469" width="38.676" height="26.905" rx="2.5" stroke="#D9D9D9"/>
<path fill-rule="evenodd" clip-rule="evenodd" d="M274.782 18.3316H272.439L270.682 11.5315C270.599 11.2187 270.422 10.9422 270.161 10.8118C269.511 10.4843 268.795 10.2236 268.014 10.0921V9.83034H271.788C272.309 9.83034 272.7 10.2236 272.765 10.6804L273.676 15.5855L276.018 9.83034H278.296L274.782 18.3316ZM279.599 18.3316H277.386L279.208 9.83034H281.421L279.599 18.3316ZM284.283 12.1854C284.349 11.7276 284.739 11.4658 285.195 11.4658C285.911 11.4 286.692 11.5315 287.343 11.8579L287.733 10.0275C287.082 9.76575 286.366 9.63428 285.716 9.63428C283.568 9.63428 282.006 10.8118 282.006 12.4461C282.006 13.6894 283.112 14.3422 283.894 14.7355C284.739 15.1276 285.065 15.3894 285 15.7816C285 16.3698 284.349 16.6316 283.699 16.6316C282.917 16.6316 282.136 16.4355 281.421 16.108L281.03 17.9395C281.811 18.2659 282.657 18.3973 283.438 18.3973C285.846 18.4619 287.343 17.2855 287.343 15.5198C287.343 13.2961 284.283 13.1658 284.283 12.1854ZM295.087 18.3316L293.33 9.83034H291.443C291.052 9.83034 290.661 10.0921 290.531 10.4843L287.278 18.3316H289.555L290.01 17.0895H292.809L293.069 18.3316H295.087ZM291.768 12.1197L292.418 15.3237H290.596L291.768 12.1197Z" fill="#172B85"/>
</svg>