<svg xmlns="http://www.w3.org/2000/svg" width="140" height="26" viewBox="0 0 140 26" fill="none">
<path d="M18.3796 22.4691C18.5234 22.5434 18.6828 22.5818 18.8444 22.5812C19.0676 22.5916 19.2879 22.5271 19.4709 22.3979C19.6277 22.2847 19.749 22.1286 19.8206 21.9482C19.8923 21.7677 19.9112 21.5703 19.8751 21.3794L18.8646 15.6456L23.0278 11.5718C23.1576 11.4412 23.2498 11.2773 23.2943 11.0979C23.3388 10.9185 23.334 10.7302 23.2804 10.5534C23.2218 10.3724 23.1141 10.2115 22.9694 10.0891C22.8247 9.96669 22.6489 9.88761 22.4619 9.86082L16.7022 9.01551L14.1356 3.80108C14.0529 3.62889 13.9237 3.48367 13.7628 3.38206C13.602 3.28045 13.416 3.22656 13.2262 3.22656C13.0363 3.22656 12.8504 3.28045 12.6895 3.38206C12.5287 3.48367 12.3995 3.62889 12.3167 3.80108L9.78046 9.02569L4.02077 9.871C3.83376 9.89779 3.65794 9.97688 3.51326 10.0993C3.36859 10.2217 3.26086 10.3825 3.20229 10.5635C3.14868 10.7404 3.14387 10.9287 3.18837 11.1081C3.23288 11.2875 3.32502 11.4513 3.45491 11.582L7.61805 15.6558L6.60758 21.3896C6.57451 21.5772 6.59433 21.7704 6.66479 21.9473C6.73524 22.1241 6.85351 22.2774 7.00614 22.3899C7.15877 22.5024 7.33964 22.5694 7.5282 22.5834C7.71675 22.5974 7.90542 22.5578 8.07276 22.4691L13.2262 19.7499L18.3796 22.4691Z" fill="#FFCB45"/>
<path d="M46.6511 22.4691C46.7949 22.5434 46.9543 22.5818 47.1159 22.5812C47.3391 22.5916 47.5594 22.5271 47.7424 22.3979C47.8991 22.2847 48.0205 22.1286 48.0921 21.9482C48.1637 21.7677 48.1826 21.5703 48.1466 21.3794L47.1361 15.6456L51.2992 11.5718C51.4291 11.4412 51.5213 11.2773 51.5658 11.0979C51.6103 10.9185 51.6055 10.7302 51.5519 10.5534C51.4933 10.3724 51.3856 10.2115 51.2409 10.0891C51.0962 9.96669 50.9204 9.88761 50.7334 9.86082L44.9737 9.01551L42.4071 3.80108C42.3243 3.62889 42.1951 3.48367 42.0343 3.38206C41.8735 3.28045 41.6875 3.22656 41.4977 3.22656C41.3078 3.22656 41.1218 3.28045 40.961 3.38206C40.8002 3.48367 40.671 3.62889 40.5882 3.80108L38.0519 9.02569L32.2923 9.871C32.1052 9.89779 31.9294 9.97688 31.7847 10.0993C31.6401 10.2217 31.5323 10.3825 31.4738 10.5635C31.4202 10.7404 31.4154 10.9287 31.4599 11.1081C31.5044 11.2875 31.5965 11.4513 31.7264 11.582L35.8895 15.6558L34.8791 21.3896C34.846 21.5772 34.8658 21.7704 34.9363 21.9473C35.0067 22.1241 35.125 22.2774 35.2776 22.3899C35.4303 22.5024 35.6111 22.5694 35.7997 22.5834C35.9882 22.5974 36.1769 22.5578 36.3442 22.4691L41.4977 19.7499L46.6511 22.4691Z" fill="#FFCB45"/>
<path d="M74.9206 22.4691C75.0644 22.5434 75.2238 22.5818 75.3854 22.5812C75.6086 22.5916 75.8289 22.5271 76.0119 22.3979C76.1687 22.2847 76.29 22.1286 76.3617 21.9482C76.4333 21.7677 76.4522 21.5703 76.4161 21.3794L75.4056 15.6456L79.5688 11.5718C79.6987 11.4412 79.7908 11.2773 79.8353 11.0979C79.8798 10.9185 79.875 10.7302 79.8214 10.5534C79.7628 10.3724 79.6551 10.2115 79.5104 10.0891C79.3657 9.96669 79.1899 9.88761 79.0029 9.86082L73.2432 9.01551L70.6766 3.80108C70.5939 3.62889 70.4647 3.48367 70.3038 3.38206C70.143 3.28045 69.957 3.22656 69.7672 3.22656C69.5774 3.22656 69.3914 3.28045 69.2305 3.38206C69.0697 3.48367 68.9405 3.62889 68.8578 3.80108L66.3215 9.02569L60.5618 9.871C60.3748 9.89779 60.199 9.97688 60.0543 10.0993C59.9096 10.2217 59.8019 10.3825 59.7433 10.5635C59.6897 10.7404 59.6849 10.9287 59.7294 11.1081C59.7739 11.2875 59.866 11.4513 59.9959 11.582L64.1591 15.6558L63.1486 21.3896C63.1155 21.5772 63.1353 21.7704 63.2058 21.9473C63.2763 22.1241 63.3945 22.2774 63.5472 22.3899C63.6998 22.5024 63.8807 22.5694 64.0692 22.5834C64.2578 22.5974 64.4464 22.5578 64.6138 22.4691L69.7672 19.7499L74.9206 22.4691Z" fill="#FFCB45"/>
<path d="M103.194 22.4691C103.338 22.5434 103.497 22.5818 103.659 22.5812C103.882 22.5916 104.102 22.5271 104.285 22.3979C104.442 22.2847 104.563 22.1286 104.635 21.9482C104.707 21.7677 104.726 21.5703 104.69 21.3794L103.679 15.6456L107.842 11.5718C107.972 11.4412 108.064 11.2773 108.109 11.0979C108.153 10.9185 108.148 10.7302 108.095 10.5534C108.036 10.3724 107.929 10.2115 107.784 10.0891C107.639 9.96669 107.463 9.88761 107.276 9.86082L101.517 9.01551L98.95 3.80108C98.8673 3.62889 98.7381 3.48367 98.5773 3.38206C98.4164 3.28045 98.2304 3.22656 98.0406 3.22656C97.8508 3.22656 97.6648 3.28045 97.504 3.38206C97.3431 3.48367 97.2139 3.62889 97.1312 3.80108L94.5949 9.02569L88.8352 9.871C88.6482 9.89779 88.4724 9.97688 88.3277 10.0993C88.183 10.2217 88.0753 10.3825 88.0167 10.5635C87.9631 10.7404 87.9583 10.9287 88.0028 11.1081C88.0473 11.2875 88.1395 11.4513 88.2694 11.582L92.4325 15.6558L91.422 21.3896C91.389 21.5772 91.4088 21.7704 91.4792 21.9473C91.5497 22.1241 91.668 22.2774 91.8206 22.3899C91.9732 22.5024 92.1541 22.5694 92.3427 22.5834C92.5312 22.5974 92.7199 22.5578 92.8872 22.4691L98.0406 19.7499L103.194 22.4691Z" fill="#FFCB45"/>
<path d="M131.954 22.0817L131.941 22.0811L131.928 22.0812C131.848 22.0815 131.769 22.0626 131.697 22.0257C131.696 22.0254 131.695 22.0252 131.695 22.0249L126.545 19.3077L126.312 19.1846L126.079 19.3077L120.925 22.0269L120.925 22.0274C120.84 22.072 120.746 22.0918 120.651 22.0848C120.557 22.0778 120.466 22.0442 120.389 21.9874L120.092 22.3899L120.389 21.9874C120.312 21.9305 120.251 21.8526 120.215 21.7622C120.179 21.6717 120.169 21.5726 120.186 21.4764L119.694 21.3896L120.186 21.4764L121.196 15.7425L121.242 15.4828L121.054 15.2984L116.893 11.2274C116.829 11.1615 116.782 11.0787 116.76 10.9877C116.737 10.8973 116.739 10.8024 116.765 10.713C116.796 10.6222 116.85 10.542 116.922 10.481C116.995 10.4191 117.084 10.3794 117.178 10.3659L117.179 10.3657L122.939 9.52039L123.201 9.48198L123.316 9.24405L125.852 4.01943L125.853 4.01764C125.896 3.92966 125.961 3.85604 126.043 3.80478C126.124 3.75354 126.217 3.72656 126.312 3.72656C126.407 3.72656 126.501 3.75354 126.582 3.80478C126.663 3.85604 126.729 3.92966 126.771 4.01764L126.771 4.01765L126.773 4.02188L129.34 9.23631L129.456 9.47205L129.716 9.51021L135.475 10.3555L135.477 10.3558C135.571 10.3692 135.659 10.4089 135.732 10.4708L136.055 10.0891L135.732 10.4708C135.804 10.5318 135.859 10.612 135.889 10.7029C135.915 10.7922 135.917 10.8871 135.895 10.9775C135.872 11.0685 135.826 11.1513 135.761 11.2172L131.601 15.2882L131.412 15.4726L131.458 15.7323L132.469 21.4662L132.469 21.4662L132.47 21.4722C132.488 21.5702 132.478 21.6714 132.442 21.7637C132.406 21.8552 132.344 21.9338 132.266 21.9909C132.174 22.0552 132.064 22.0869 131.954 22.0817Z" fill="#FFCB45" stroke="#FFCB45"/>
</svg>