<svg xmlns="http://www.w3.org/2000/svg" width="24" height="24" viewBox="0 0 24 24" fill="none">
<path fill-rule="evenodd" clip-rule="evenodd" d="M8.4563 15.7663L9.67353 8.24866H11.6176L10.4003 15.7663H8.4563Z" fill="#1434CB"/>
<path fill-rule="evenodd" clip-rule="evenodd" d="M17.4478 8.43763C17.0634 8.2852 16.4559 8.11731 15.7048 8.11731C13.7851 8.11731 12.4331 9.14013 12.4243 10.6048C12.4088 11.685 13.3919 12.2837 14.1275 12.6438C14.8786 13.0127 15.1349 13.2513 15.1349 13.5805C15.126 14.0841 14.5274 14.3161 13.9662 14.3161C13.1908 14.3161 12.7733 14.1968 12.1415 13.9163L11.8852 13.797L11.6135 15.4847C12.0686 15.6924 12.9103 15.8757 13.7807 15.8846C15.8197 15.8846 17.1474 14.8772 17.165 13.3176C17.1739 12.4627 16.6525 11.8065 15.5325 11.2697C14.8521 10.9251 14.4368 10.6931 14.4368 10.3419C14.4456 10.0216 14.788 9.69462 15.5568 9.69462C16.1886 9.67916 16.6525 9.82938 17.0038 9.98181L17.1805 10.0613L17.4478 8.43763Z" fill="#1434CB"/>
<path fill-rule="evenodd" clip-rule="evenodd" d="M20.0323 13.1064C20.1913 12.6734 20.8077 11.0033 20.8077 11.0033C20.7988 11.0188 20.9667 10.5637 21.0639 10.2832L21.2009 10.9304C21.2009 10.9304 21.5698 12.7309 21.6494 13.1064C21.3445 13.1064 20.4166 13.1064 20.0323 13.1064ZM22.4314 8.11475H20.927C20.463 8.11475 20.1118 8.25171 19.9108 8.73772L17.0234 15.7684H19.0625C19.0625 15.7684 19.3983 14.8406 19.4712 14.6396C19.6943 14.6396 21.6781 14.6396 21.9675 14.6396C22.0227 14.9024 22.1994 15.7684 22.1994 15.7684H23.9999L22.4314 8.11475Z" fill="#1434CB"/>
<path fill-rule="evenodd" clip-rule="evenodd" d="M4.92861 13.376L6.83287 8.24866H8.88736L5.83213 15.7597H3.77545L2.04347 9.22689C1.44544 8.87722 0.762927 8.59608 0 8.4012L0.0331152 8.24878H3.16124C3.58539 8.26424 3.93001 8.40121 4.03825 8.88058L4.7141 12.3124C4.71642 12.3201 4.71871 12.3278 4.72096 12.3355L4.92861 13.376Z" fill="#1434CB"/>
</svg>